# xmcd
#
# Track frame offsets:
# 150
# 11158
# 24169
# 35119
# 45236
# 57633
# 69883
# 80192
# 92491
# 103031
# 114041
# 125371
#
# Disc length: 1863 seconds
#
#
# Revision: 0
# Processed by: cddbd v1.5PL3 Copyright (c) Steve Scherf et al.
# Submitted via: FreeRIP 2.53 
#
DISCID=9107450c
DTITLE=Owens, Buck - All-Time Greatest Hits Vol 1
DYEAR=1900
DGENRE=
TTITLE0=Act Naturally
TTITLE1=Streets Of Bakersfield
TTITLE2=Together Again
TTITLE3=Before You Go
TTITLE4=Made In Japan
TTITLE5=Foolin' Around
TTITLE6=I've Got A Tiger By The Tail
TTITLE7=Under Your Spell Again
TTITLE8=Think Of Me
TTITLE9=Who's Going To Mow Your Grass
TTITLE10=Excuse Me
TTITLE11=Big In Vegas
EXTD=
EXTT0=
EXTT1=
EXTT2=
EXTT3=
EXTT4=
EXTT5=
EXTT6=
EXTT7=
EXTT8=
EXTT9=
EXTT10=
EXTT11=
PLAYORDER=
